<?xml version="1.0" encoding="UTF-8"?>
<!DOCTYPE svg PUBLIC "-//W3C//DTD SVG 1.1//EN" "http://www.w3.org/Graphics/SVG/1.1/DTD/svg11.dtd">
<svg version="1.1" xmlns="http://www.w3.org/2000/svg" xmlns:xlink="http://www.w3.org/1999/xlink" x="0" y="0" width="83" height="82" viewBox="0, 0, 83, 82">
  <defs>
    <linearGradient id="Gradient_1" gradientUnits="userSpaceOnUse" x1="17.483" y1="7.415" x2="64.517" y2="74.585" gradientTransform="matrix(-1, 0, 0, 1, 82.912, 0)">
      <stop offset="0" stop-color="#00086C" stop-opacity="0.959"/>
      <stop offset="1" stop-color="#0088EC"/>
    </linearGradient>
  </defs>
  <g id="Page-1">
    <path d="M0.912,41 C0.912,63.644 19.268,82 41.912,82 C64.556,82 82.912,63.644 82.912,41 C82.912,18.356 64.556,0 41.912,0 C19.268,0 0.912,18.356 0.912,41 z" fill="url(#Gradient_1)" id="Oval-1"/>
    <path d="M45.385,39 L53.385,39 L53.385,43 L45.385,43 z" fill="#FFFFFF"/>
    <path d="M45.385,47 L53.385,47 L53.385,51 L45.385,51 z" fill="#FFFFFF"/>
    <path d="M35.385,49 L31.108,44.719 L33.225,42.601 L35.365,44.746 L41.111,39 L29.385,39 L29.385,51 L41.385,51 L41.385,47.273 L44.557,44.101 L42.42,41.964 z" fill="#FFFFFF"/>
    <path d="M57.385,23 L51.832,23 C51.091,22.177 50.14,21.547 49.047,21.233 C48.125,20.968 47.417,20.259 47.152,19.339 C46.431,16.833 44.122,15 41.385,15 C38.648,15 36.339,16.833 35.618,19.339 C35.353,20.26 34.642,20.969 33.721,21.234 C32.628,21.549 31.678,22.178 30.938,23 L25.385,23 C23.176,23 21.385,24.791 21.385,27 L21.385,63 C21.385,65.209 23.176,67 25.385,67 L57.385,67 C59.594,67 61.385,65.209 61.385,63 L61.385,27 C61.385,24.791 59.594,23 57.385,23 z M41.411,19 C42.515,19 43.411,19.895 43.411,21 C43.411,22.104 42.515,23 41.411,23 C40.306,23 39.411,22.104 39.411,21 C39.411,19.895 40.306,19 41.411,19 z M57.385,63 L25.385,63 L25.385,27 L29.385,27 L29.385,31 L53.385,31 L53.385,27 L57.385,27 L57.385,63 z" fill="#FFFFFF"/>
  </g>
</svg>
